<svg xmlns="http://www.w3.org/2000/svg" viewBox="0 0 512 512">
  <path d="M480.996 331.991h-135c-24.813 0-45-20.187-45-45V280.9c0-43.082 12.568-81.673 35.389-108.666 20.51-24.261 28.742-56.37 22.585-88.095-7.956-40.994-41.462-74.731-83.365-82.361-65.687-11.961-124.608 37.966-124.608 103.213 0 22.103 6.838 43.221 19.776 61.071 26.691 36.826 40.224 74.356 40.224 111.548v8.104c0 25.95-19.766 46.278-45 46.278h-135v120h30v60h390v-60h30V331.991zM195.063 148.456c-9.203-12.697-14.067-27.727-14.067-43.465 0-45.374 40.733-82.529 89.234-73.698 29.25 5.326 53.63 29.407 59.289 58.562 4.482 23.094-1.216 45.471-16.045 63.011-27.392 32.4-42.478 77.87-42.479 128.034v6.091c0 16.871 5.603 32.456 15.041 45h-60.233c9.847-13.162 15.192-29.251 15.192-46.278v-8.104c.001-43.646-15.453-87.099-45.932-129.153zm225.933 333.535h-330v-30h330zm30-60h-390v-60h390z"/>
</svg>

