<svg xmlns="http://www.w3.org/2000/svg" viewBox="0 0 512 512">
  <path d="M462 172c2.63 0 5.21-1.07 7.069-2.931C470.93 167.21 472 164.63 472 162s-1.07-5.21-2.931-7.07C467.21 153.07 464.63 152 462 152s-5.21 1.069-7.07 2.93S452 159.37 452 162s1.069 5.21 2.93 7.069A10.072 10.072 0 00462 172zM196.5 443.667h-.149c-5.522 0-10 4.478-10 10s4.478 10 10 10h.149c5.522 0 10-4.478 10-10s-4.478-10-10-10z"/>
  <path d="M512 401.591V70c0-16.542-13.458-30-30-30h-34.254v-6c0-18.748-15.252-34-34-34s-34 15.252-34 34v6h-89.873v-6c0-18.748-15.252-34-34-34s-34 15.252-34 34v6H132v-6c0-18.748-15.252-34-34-34S64 15.252 64 34v6H30C13.458 40 0 53.458 0 70v412c0 16.542 13.458 30 30 30h371.591a9.968 9.968 0 007.068-2.927l.003-.002 100.409-100.409a9.973 9.973 0 002.929-7.071zM399.746 34c0-7.72 6.28-14 14-14s14 6.28 14 14v49c0 7.72-6.28 14-14 14s-14-6.28-14-14V34zm-157.873 0c0-7.72 6.28-14 14-14s14 6.28 14 14v49c0 7.72-6.28 14-14 14s-14-6.28-14-14V34zM84 34c0-7.72 6.28-14 14-14s14 6.28 14 14v49c0 7.72-6.28 14-14 14s-14-6.28-14-14V34zM20 482v-18.333h136.5c5.522 0 10-4.478 10-10s-4.478-10-10-10H20V172h402c5.522 0 10-4.478 10-10s-4.478-10-10-10H20V70c0-5.514 4.486-10 10-10h34v23c0 18.748 15.252 34 34 34s34-15.252 34-34V60h89.873v23c0 18.748 15.252 34 34 34s34-15.252 34-34V60h89.873v23c0 18.748 15.252 34 34 34s34-15.252 34-34V60H482c5.514 0 10 4.486 10 10v321.591h-70.409c-16.542 0-30 13.458-30 30V492H30c-5.514 0-10-4.486-10-10zm391.591-4.143V421.59c0-5.514 4.486-10 10-10h56.267l-66.267 66.267z"/>
  <path d="M196.061 350.513v-69.026c0-10.745-8.742-19.487-19.487-19.487h-43.313c-5.522 0-10 4.478-10 10s4.478 10 10 10h42.8v24h-42.8c-5.522 0-10 4.478-10 10s4.478 10 10 10h42.8v24h-42.8c-5.522 0-10 4.478-10 10s4.478 10 10 10h43.313c10.744 0 19.487-8.742 19.487-19.487zM282.86 282c5.522 0 10-4.478 10-10s-4.478-10-10-10h-43.313c-10.745 0-19.487 8.742-19.487 19.487v69.026c0 10.745 8.742 19.487 19.487 19.487h33.825c10.745 0 19.487-8.742 19.487-19.487v-25.025c0-10.745-8.742-19.487-19.487-19.487H240.06v-24h42.8zm-24.2 44h14.2v24h-32.8v-24h18.6zM370.173 306h-33.312v-24h42.8c5.522 0 10-4.478 10-10s-4.478-10-10-10h-43.313c-10.745 0-19.487 8.742-19.487 19.487v25.025c0 10.745 8.742 19.487 19.487 19.487h33.312v24h-42.8c-5.522 0-10 4.478-10 10s4.478 10 10 10h43.313c10.745 0 19.487-8.742 19.487-19.487v-25.025c0-10.745-8.742-19.487-19.487-19.487z"/>
</svg>

